<?xml version="1.0" encoding="utf-8"?>
<!-- Generator: Adobe Illustrator 16.0.0, SVG Export Plug-In . SVG Version: 6.00 Build 0)  -->
<!DOCTYPE svg PUBLIC "-//W3C//DTD SVG 1.1//EN" "http://www.w3.org/Graphics/SVG/1.1/DTD/svg11.dtd">
<svg version="1.1" id="Layer_1" xmlns="http://www.w3.org/2000/svg" xmlns:xlink="http://www.w3.org/1999/xlink" x="0px" y="0px"
	 width="1000px" height="1000.025px" viewBox="0 0 1000 1000.025" enable-background="new 0 0 1000 1000.025" xml:space="preserve">
<g>
	<g>
		<rect fill="#0D2435" width="1000" height="1000.025"/>
	</g>
	<g>
		<defs>
			<path id="SVGID_1_" d="M589.564,160.471c-0.798,0.029-1.376,0.699-1.307,1.475l25.55,541.258
				c0.047,0.092,0.047,0.229,0.047,0.335c0.471,5.476,5.314,9.567,10.813,9.095c5.513-0.486,9.573-5.322,9.095-10.845
				l-42.737-540.026c-0.061-0.746-0.685-1.292-1.414-1.292C589.596,160.471,589.58,160.471,589.564,160.471"/>
		</defs>
		<clipPath id="SVGID_2_">
			<use xlink:href="#SVGID_1_"  overflow="visible"/>
		</clipPath>
		
			<linearGradient id="SVGID_3_" gradientUnits="userSpaceOnUse" x1="65.5332" y1="807.4482" x2="81.1053" y2="807.4482" gradientTransform="matrix(2.0097 34.877 34.877 -2.0097 -27697.3535 -495.4219)">
			<stop  offset="0" style="stop-color:#008B78"/>
			<stop  offset="0.2494" style="stop-color:#008B78"/>
			<stop  offset="0.6927" style="stop-color:#F4EA0B"/>
			<stop  offset="1" style="stop-color:#F4EA0B"/>
		</linearGradient>
		<polygon clip-path="url(#SVGID_2_)" fill="url(#SVGID_3_)" points="634.09,157.824 665.982,711.28 588.341,715.751 
			556.455,162.294 		"/>
	</g>
	<g>
		<defs>
			<path id="SVGID_4_" d="M584.705,178.188l0.717,453.746v0.139c0.029,3.313,2.836,5.931,6.09,5.839
				c3.315-0.06,5.962-2.798,5.871-6.113l-10.031-453.641c0-0.73-0.607-1.309-1.307-1.309
				C585.261,176.85,584.705,177.443,584.705,178.188"/>
		</defs>
		<clipPath id="SVGID_5_">
			<use xlink:href="#SVGID_4_"  overflow="visible"/>
		</clipPath>
		
			<linearGradient id="SVGID_6_" gradientUnits="userSpaceOnUse" x1="62.7109" y1="808.3164" x2="78.2863" y2="808.3164" gradientTransform="matrix(0.5829 29.4688 29.4688 -0.5829 -23270.1074 -1197.1304)">
			<stop  offset="0" style="stop-color:#008B78"/>
			<stop  offset="0.2494" style="stop-color:#008B78"/>
			<stop  offset="0.6927" style="stop-color:#F4EA0B"/>
			<stop  offset="1" style="stop-color:#F4EA0B"/>
		</linearGradient>
		<polygon clip-path="url(#SVGID_5_)" fill="url(#SVGID_6_)" points="597.466,176.591 606.592,637.821 584.705,638.247 
			575.588,177.032 		"/>
	</g>
	<g>
		<defs>
			<path id="SVGID_7_" d="M270.031,269.305c-0.031,0.198,0.091,0.426,0.296,0.488L701.99,369.64l0.061,0.016
				c2.616,0.532,5.141-1.157,5.658-3.757c0.51-2.571-1.156-5.095-3.772-5.643L270.48,269.018c-0.016-0.016-0.047-0.016-0.076-0.016
				C270.244,269.002,270.076,269.138,270.031,269.305"/>
		</defs>
		<clipPath id="SVGID_8_">
			<use xlink:href="#SVGID_7_"  overflow="visible"/>
		</clipPath>
		
			<linearGradient id="SVGID_9_" gradientUnits="userSpaceOnUse" x1="80.9087" y1="811.7285" x2="96.4985" y2="811.7285" gradientTransform="matrix(28.1094 0 0 -28.1094 -2004.2891 23136.7852)">
			<stop  offset="0" style="stop-color:#008B78"/>
			<stop  offset="0.2494" style="stop-color:#008B78"/>
			<stop  offset="0.6927" style="stop-color:#F4EA0B"/>
			<stop  offset="1" style="stop-color:#F4EA0B"/>
		</linearGradient>
		<rect x="270" y="269.002" clip-path="url(#SVGID_8_)" fill="url(#SVGID_9_)" width="438.219" height="101.186"/>
	</g>
	<g>
		<defs>
			<path id="SVGID_10_" d="M268.023,271.359c-0.221,0.654,0.152,1.43,0.852,1.659l481.928,159.754
				c0.404,0.153,0.883,0.29,1.24,0.381c10.297,2.631,20.746-3.574,23.377-13.841c2.57-10.22-3.598-20.669-13.871-23.3
				L269.59,270.447c-0.092-0.031-0.198-0.031-0.313-0.031C268.738,270.416,268.191,270.781,268.023,271.359"/>
		</defs>
		<clipPath id="SVGID_11_">
			<use xlink:href="#SVGID_10_"  overflow="visible"/>
		</clipPath>
		
			<linearGradient id="SVGID_12_" gradientUnits="userSpaceOnUse" x1="77.1509" y1="809.999" x2="92.7247" y2="809.999" gradientTransform="matrix(32.492 9.2701 9.2701 -32.492 -9750.3496 25882.8672)">
			<stop  offset="0" style="stop-color:#008B78"/>
			<stop  offset="0.2494" style="stop-color:#008B78"/>
			<stop  offset="0.6927" style="stop-color:#F4EA0B"/>
			<stop  offset="1" style="stop-color:#F4EA0B"/>
		</linearGradient>
		<polygon clip-path="url(#SVGID_11_)" fill="url(#SVGID_12_)" points="306.205,135.816 821.617,282.873 739.587,570.384 
			224.176,423.343 		"/>
	</g>
	<g>
		<defs>
			<path id="SVGID_13_" d="M579.162,117.308L247.476,569.198c-0.228,0.303-0.122,0.729,0.159,0.928
				c0.313,0.211,0.73,0.137,0.951-0.137l343.511-443.252l0.114-0.167c2.571-3.62,1.712-8.608-1.916-11.164
				c-1.398-0.988-3.019-1.476-4.623-1.476C583.178,113.93,580.713,115.102,579.162,117.308"/>
		</defs>
		<clipPath id="SVGID_14_">
			<use xlink:href="#SVGID_13_"  overflow="visible"/>
		</clipPath>
		
			<linearGradient id="SVGID_15_" gradientUnits="userSpaceOnUse" x1="84.0591" y1="800.4082" x2="99.634" y2="800.4082" gradientTransform="matrix(21.4452 -28.7495 -28.7495 -21.4452 21459.0547 20152.5234)">
			<stop  offset="0" style="stop-color:#008B78"/>
			<stop  offset="0.2494" style="stop-color:#008B78"/>
			<stop  offset="0.6927" style="stop-color:#F4EA0B"/>
			<stop  offset="1" style="stop-color:#F4EA0B"/>
		</linearGradient>
		<polygon clip-path="url(#SVGID_14_)" fill="url(#SVGID_15_)" points="28.504,407.176 371.49,-52.623 813.518,277.093 
			470.539,736.907 		"/>
	</g>
	<g>
		<defs>
			<path id="SVGID_16_" d="M544.508,137.125L258.16,551.419c-0.062,0.107-0.062,0.289,0.061,0.334
				c0.13,0.092,0.281,0.076,0.327-0.045l293.884-409.17c0.016-0.015,0.046-0.076,0.046-0.09c1.499-2.191,0.921-5.172-1.292-6.646
				c-0.838-0.547-1.757-0.822-2.678-0.822C546.965,134.979,545.459,135.74,544.508,137.125"/>
		</defs>
		<clipPath id="SVGID_17_">
			<use xlink:href="#SVGID_16_"  overflow="visible"/>
		</clipPath>
		
			<linearGradient id="SVGID_18_" gradientUnits="userSpaceOnUse" x1="85.3086" y1="800.6963" x2="100.8804" y2="800.6963" gradientTransform="matrix(18.2611 -26.2211 -26.2211 -18.2611 19699.6992 17408.2695)">
			<stop  offset="0" style="stop-color:#008B78"/>
			<stop  offset="0.2494" style="stop-color:#008B78"/>
			<stop  offset="0.6927" style="stop-color:#F4EA0B"/>
			<stop  offset="1" style="stop-color:#F4EA0B"/>
		</linearGradient>
		<polygon clip-path="url(#SVGID_17_)" fill="url(#SVGID_18_)" points="62.603,415.693 354.73,-3.772 749.465,271.131 
			457.338,690.597 		"/>
	</g>
	<g>
		<defs>
			<path id="SVGID_19_" d="M548.045,197.108L283.187,527.936c-0.138,0.229-0.138,0.532,0.069,0.729
				c0.242,0.152,0.51,0.138,0.699-0.091l273.367-323.861c0.03-0.03,0.045-0.091,0.045-0.121c2.107-2.585,1.674-6.358-0.928-8.426
				c-1.095-0.882-2.418-1.308-3.726-1.308C550.957,194.858,549.208,195.619,548.045,197.108"/>
		</defs>
		<clipPath id="SVGID_20_">
			<use xlink:href="#SVGID_19_"  overflow="visible"/>
		</clipPath>
		
			<linearGradient id="SVGID_21_" gradientUnits="userSpaceOnUse" x1="86.8228" y1="801.5615" x2="102.3955" y2="801.5615" gradientTransform="matrix(17.325 -21.071 -21.071 -17.325 15669.0771 16245.7998)">
			<stop  offset="0" style="stop-color:#008B78"/>
			<stop  offset="0.2494" style="stop-color:#008B78"/>
			<stop  offset="0.6927" style="stop-color:#F4EA0B"/>
			<stop  offset="1" style="stop-color:#F4EA0B"/>
		</linearGradient>
		<polygon clip-path="url(#SVGID_20_)" fill="url(#SVGID_21_)" points="119.211,394.111 394.547,59.254 723.305,329.564 
			447.977,664.423 		"/>
	</g>
	<g>
		<defs>
			<path id="SVGID_22_" d="M295.264,340.895c-2.525,2.099-2.822,5.9-0.662,8.426l271.238,320.03c0.707,0.82,1.946,0.94,2.759,0.256
				c0.891-0.713,1.042-1.976,0.313-2.827L303.795,341.641c0,0-0.062-0.062-0.062-0.091c-1.187-1.385-2.866-2.114-4.562-2.114
				C297.779,339.436,296.396,339.906,295.264,340.895"/>
		</defs>
		<clipPath id="SVGID_23_">
			<use xlink:href="#SVGID_22_"  overflow="visible"/>
		</clipPath>
		
			<linearGradient id="SVGID_24_" gradientUnits="userSpaceOnUse" x1="75.7349" y1="787.6611" x2="91.3093" y2="787.6611" gradientTransform="matrix(-17.5499 -20.9821 -20.9821 17.5499 18423.9551 -11565.5732)">
			<stop  offset="0" style="stop-color:#008B78"/>
			<stop  offset="0.2494" style="stop-color:#008B78"/>
			<stop  offset="0.6927" style="stop-color:#F4EA0B"/>
			<stop  offset="1" style="stop-color:#F4EA0B"/>
		</linearGradient>
		<polygon clip-path="url(#SVGID_23_)" fill="url(#SVGID_24_)" points="406.548,806.717 129.613,475.632 455.535,203.025 
			732.469,534.11 		"/>
	</g>
	<g>
		<defs>
			<path id="SVGID_25_" d="M262.351,258.431c-4.654,3.742-5.354,10.525-1.59,15.179l336.934,414.49
				c0.623,0.717,1.665,0.839,2.396,0.275c0.76-0.549,0.874-1.628,0.326-2.373L277.719,260.302c-0.061-0.121-0.182-0.228-0.242-0.303
				c-2.107-2.632-5.217-3.985-8.35-3.985C266.746,256.013,264.327,256.804,262.351,258.431"/>
		</defs>
		<clipPath id="SVGID_26_">
			<use xlink:href="#SVGID_25_"  overflow="visible"/>
		</clipPath>
		
			<linearGradient id="SVGID_27_" gradientUnits="userSpaceOnUse" x1="76.0806" y1="789.4014" x2="91.6553" y2="789.4014" gradientTransform="matrix(-21.6297 -27.5876 -27.5876 21.6297 24022.3379 -14286.2705)">
			<stop  offset="0" style="stop-color:#008B78"/>
			<stop  offset="0.2494" style="stop-color:#008B78"/>
			<stop  offset="0.6927" style="stop-color:#F4EA0B"/>
			<stop  offset="1" style="stop-color:#F4EA0B"/>
		</linearGradient>
		<polygon clip-path="url(#SVGID_26_)" fill="url(#SVGID_27_)" points="387.938,855.949 46.785,420.819 470.014,88.987 
			811.176,524.118 		"/>
	</g>
	<g>
		<defs>
			<path id="SVGID_28_" d="M530.554,462.064L244.594,590.81c-0.151,0.063-0.273,0.259-0.151,0.441
				c0.06,0.151,0.235,0.243,0.463,0.151l288.843-121.991c0-0.031,0.061-0.031,0.121-0.076c1.978-0.897,2.897-3.255,1.978-5.262
				c-0.669-1.491-2.114-2.357-3.642-2.357C531.656,461.716,531.078,461.822,530.554,462.064"/>
		</defs>
		<clipPath id="SVGID_29_">
			<use xlink:href="#SVGID_28_"  overflow="visible"/>
		</clipPath>
		
			<linearGradient id="SVGID_30_" gradientUnits="userSpaceOnUse" x1="79.8301" y1="808.502" x2="95.399" y2="808.502" gradientTransform="matrix(18.7383 0 0 -18.7383 -1251.5488 15676.5264)">
			<stop  offset="0" style="stop-color:#008B78"/>
			<stop  offset="0.2494" style="stop-color:#008B78"/>
			<stop  offset="0.6927" style="stop-color:#F4EA0B"/>
			<stop  offset="1" style="stop-color:#F4EA0B"/>
		</linearGradient>
		<rect x="244.32" y="461.716" clip-path="url(#SVGID_29_)" fill="url(#SVGID_30_)" width="292.446" height="129.778"/>
	</g>
	<g>
		<defs>
			<path id="SVGID_31_" d="M741.892,395.632L224.754,600.756c-0.327,0.138-0.51,0.473-0.389,0.823
				c0.106,0.35,0.488,0.546,0.814,0.454L756.248,436.27c0.563-0.167,1.05-0.334,1.528-0.546
				c11.072-4.396,16.524-16.928,12.099-27.97c-3.33-8.486-11.459-13.642-20.021-13.642
				C747.199,394.111,744.507,394.583,741.892,395.632"/>
		</defs>
		<clipPath id="SVGID_32_">
			<use xlink:href="#SVGID_31_"  overflow="visible"/>
		</clipPath>
		
			<linearGradient id="SVGID_33_" gradientUnits="userSpaceOnUse" x1="80.9014" y1="801.4258" x2="96.473" y2="801.4258" gradientTransform="matrix(35.1009 -12.24 -12.24 -35.1009 7191.4785 29715.9414)">
			<stop  offset="0" style="stop-color:#008B78"/>
			<stop  offset="0.2494" style="stop-color:#008B78"/>
			<stop  offset="0.6927" style="stop-color:#F4EA0B"/>
			<stop  offset="1" style="stop-color:#F4EA0B"/>
		</linearGradient>
		<polygon clip-path="url(#SVGID_32_)" fill="url(#SVGID_33_)" points="159.567,416.666 714.666,223.085 838.979,579.569 
			283.879,773.149 		"/>
	</g>
	<path fill="#FFFFFF" d="M283.754,884.439h26.209v-59.252c0-5.145-0.799-9.854-2.352-14.064c-1.578-4.23-3.898-7.85-6.967-10.877
		c-3.082-3.002-6.857-5.34-11.363-6.988c-4.5-1.652-9.613-2.465-15.357-2.465c-9.947,0-17.813,2.793-23.533,8.402v-37.055
		l-26.41,9.223v113.076h26.41v-62.543c1.088-2.959,3.092-5.355,6.035-7.17c2.934-1.795,6.375-2.699,10.346-2.699
		c6,0,10.32,1.462,13,4.348c2.658,2.914,3.982,6.406,3.982,10.475V884.439z"/>
	<path fill="#FFFFFF" d="M385.697,882.385c5.744-2.475,10.6-5.844,14.643-10.113c4.021-4.279,7.16-9.32,9.418-15.146
		c2.24-5.824,3.367-12.074,3.367-18.769c0-6.681-1.127-12.916-3.367-18.691c-2.258-5.751-5.396-10.769-9.418-15.048
		c-4.043-4.284-8.898-7.653-14.643-10.123c-5.729-2.479-12.09-3.702-19.045-3.702c-6.961,0-13.301,1.223-19.02,3.702
		c-5.744,2.47-10.625,5.839-14.645,10.123c-4.02,4.279-7.178,9.297-9.428,15.048c-2.246,5.775-3.375,12.011-3.375,18.691
		c0,6.694,1.129,12.944,3.375,18.769c2.25,5.825,5.408,10.866,9.428,15.146c4.02,4.27,8.9,7.639,14.645,10.113
		c5.719,2.484,12.059,3.712,19.02,3.712C373.607,886.097,379.969,884.869,385.697,882.385 M351.504,857.038
		c-3.551-4.772-5.313-10.999-5.313-18.681c0-7.678,1.762-13.885,5.313-18.604c3.561-4.719,8.588-7.066,15.148-7.066
		c6.555,0,11.611,2.348,15.152,7.066c3.551,4.719,5.34,10.926,5.34,18.604c0,7.682-1.789,13.908-5.34,18.681
		c-3.541,4.772-8.598,7.159-15.152,7.159C360.092,864.197,355.064,861.811,351.504,857.038"/>
	<path fill="#FFFFFF" d="M476.795,860.584c-1.918,1.314-4.068,2.367-6.445,3.119c-2.396,0.768-4.754,1.154-7.072,1.154
		c-3.139,0-5.594-0.605-7.363-1.814c-1.781-1.197-2.682-3.35-2.682-6.416v-43.284h19.66v-20.896h-19.66v-26.192l-25.979,9.076
		v17.116h-11.67v20.896h11.67v46.077c0,8.02,2.428,14.471,7.271,19.342c4.836,4.875,11.832,7.335,20.967,7.335
		c4.783,0,8.49-0.288,11.16-0.831c2.66-0.568,4.676-1.164,6.035-1.819L476.795,860.584z"/>
	<path fill="#FFFFFF" d="M477.402,877.7c5.73,3.174,11.736,5.37,18.025,6.572c6.26,1.228,12.059,1.824,17.381,1.824
		c6.299,0,12.195-0.562,17.721-1.657c5.527-1.096,10.301-2.822,14.34-5.18c4.01-2.357,7.199-5.447,9.496-9.302
		c2.328-3.833,3.492-8.558,3.492-14.147c0-7.248-2.025-12.939-6.035-17.043c-4.039-4.113-9.525-7.258-16.49-9.458
		c-2.729-0.772-5.818-1.442-9.311-1.985s-6.748-1.197-9.84-1.976c-3.051-0.748-5.682-1.668-7.863-2.71
		c-2.191-1.041-3.275-2.439-3.275-4.2c0-1.638,0.947-2.993,2.875-4.024c1.906-1.047,5.574-1.57,11.041-1.57
		c4.627,0,9.008,0.548,13.098,1.644c4.107,1.085,8.527,2.919,13.32,5.429l7.58-20.569c-9.164-5.375-19.814-8.064-31.943-8.064
		c-6.152,0-11.844,0.523-17.088,1.575c-5.262,1.021-9.779,2.704-13.525,5.008c-3.756,2.309-6.73,5.242-8.891,8.797
		c-2.201,3.575-3.287,7.825-3.287,12.77c0,4.381,0.949,8.059,2.865,11.022c1.908,2.964,4.637,5.468,8.197,7.487
		c3.541,2.044,7.834,3.761,12.881,5.184c5.066,1.428,10.643,2.807,16.793,4.117c4.51,0.988,7.777,2.152,9.84,3.458
		c2.045,1.315,3.053,3.018,3.053,5.11c0,2.631-1.43,4.793-4.305,6.5c-2.865,1.706-7.57,2.553-14.113,2.553
		c-5.721,0-10.984-0.666-15.766-1.977c-4.783-1.32-8.529-2.748-11.258-4.289L477.402,877.7z"/>
	<path fill="#FFFFFF" d="M618.049,860.584c-1.908,1.314-4.07,2.367-6.465,3.119c-2.377,0.768-4.725,1.154-7.043,1.154
		c-3.16,0-5.613-0.605-7.385-1.814c-1.77-1.197-2.67-3.35-2.67-6.416v-43.284h19.678v-20.896h-19.678v-26.192L568.5,775.33v17.116
		h-11.67v20.896h11.67v46.077c0,8.02,2.434,14.471,7.285,19.342c4.813,4.875,11.816,7.335,20.961,7.335
		c4.773,0,8.498-0.288,11.17-0.831c2.66-0.568,4.664-1.164,6.025-1.819L618.049,860.584z"/>
	<path fill="#FFFFFF" d="M677.191,857.947c-4.088,3.957-9.545,5.938-16.361,5.938c-4.646,0-8.656-1.096-11.992-3.223
		c-3.336-2.143-4.998-5.032-4.998-8.646c0-8.338,6.406-12.504,19.238-12.504c3.141,0,5.986,0.527,8.598,1.56
		c2.582,1.052,4.439,2.327,5.516,3.872V857.947z M677.398,884.439h26.182v-58.758c0-5.253-0.969-10.061-2.934-14.412
		c-1.986-4.323-4.783-7.996-8.412-11.023c-3.6-3.002-8.01-5.34-13.203-6.988c-5.184-1.652-10.906-2.465-17.186-2.465
		c-6.689,0-12.9,1.013-18.633,3.037c-5.73,2.034-10.582,4.797-14.523,8.309l11.865,16.295c2.865-1.966,5.789-3.535,8.813-4.68
		c2.982-1.159,6.602-1.727,10.846-1.727c5.184,0,9.145,0.904,11.875,2.699c2.717,1.814,4.557,4.92,5.516,9.307
		c-2.709-1.525-5.771-2.543-9.098-3.047c-3.354-0.488-6.66-0.734-9.926-0.734c-12.305,0-22.203,2.695-29.695,8.07
		c-7.502,5.369-11.248,13.438-11.248,24.207c0,5.135,0.949,9.785,2.857,13.894c1.906,4.117,4.576,7.634,7.98,10.523
		c3.414,2.915,7.326,5.169,11.775,6.749c4.422,1.594,9.244,2.406,14.438,2.406c4.754,0,9.174-0.68,13.193-1.995
		c4.029-1.321,7.209-2.905,9.518-4.778V884.439z"/>
	<path fill="#FFFFFF" d="M775.664,795.238c-1.916-1.54-4.137-2.674-6.66-3.379c-2.523-0.714-5.154-1.066-7.873-1.066
		c-7.092,0-12.773,2.133-17,6.422v-4.769h-26.398v91.993h26.398v-62.377c0.539-3.076,1.889-5.521,4.002-7.336
		c2.111-1.795,5.145-2.699,9.105-2.699c2.453,0,4.469,0.264,6.053,0.816c1.557,0.548,2.955,1.257,4.178,2.137L775.664,795.238z"/>
</g>
</svg>
